# File created by Blade
# Date/Time:  Tue Apr 07 21:36:51 2015
#---------------------------------------------------------
:version 1.10
:name HOM
:units
  mass 1.0
  length 1.000000
  angle deg
:documentation
     Acclaim Skeleton File
:root
   axis xyz
   order TX TY TZ RX RY RZ
   position 0.000000 0.000000 0.000000
   orientation 0 0 0
:bonedata
   begin
      id 1
      name Spine_dum
      direction 0.000000 1.000000 0.000000
      length 4.885285
      axis 0.0 0.0 0.0 xyz
   end
   begin
      id 2
      name LeftUpLeg_dum
      direction 1.000000 0.000000 0.000000
      length 2.672193
      axis 0.0 0.0 0.0 xyz
   end
   begin
      id 3
      name RightUpLeg_dum
      direction -1.000000 0.000000 0.000000
      length 2.672193
      axis 0.0 0.0 0.0 xyz
   end
   begin
      id 4
      name Spine
      direction 0.000000 1.000000 0.000000
      length 0.000000
      axis 0.0 0.0 0.0 xyz
      dof rx ry rz
   end
   begin
      id 5
      name Spine_dum1
      direction 0.000000 1.000000 0.000000
      length 16.494159
      axis 0.0 0.0 0.0 xyz
   end
   begin
      id 6
      name Spine_dum2
      direction 0.000000 1.000000 0.000000
      length 10.663448
      axis 0.0 0.0 0.0 xyz
   end
   begin
      id 7
      name Spine_dum3
      direction 0.000000 1.000000 0.000000
      length 10.663448
      axis 0.0 0.0 0.0 xyz
   end
   begin
      id 8
      name Head
      direction 0.000000 1.000000 0.000000
      length 4.527550
      axis 0.0 0.0 0.0 xyz
      dof rx ry rz
   end
   begin
      id 9
      name LeftShoulder
      direction 1.000000 0.000000 0.000000
      length 7.531907
      axis 0.0 0.0 -90.0 xyz
      dof rx ry rz
   end
   begin
      id 10
      name LeftArm
      direction 1.000000 0.000000 0.000000
      length 10.229199
      axis 0.0 0.0 -90.0 xyz
      dof rx ry rz
   end
   begin
      id 11
      name LeftForeArm
      direction 1.000000 0.000000 0.000000
      length 8.673495
      axis 0.0 0.0 -90.0 xyz
      dof ry rz rx
   end
   begin
      id 12
      name LeftHand
      direction 0.000000 0.000000 0.000000
      length 0.000000
      axis 0.0 0.0 -90.0 xyz
      dof rx ry rz
   end
   begin
      id 13
      name LeftHand_dum1
      direction 0.000000 0.000000 0.000000
      length 0.000000
      axis 0.0 0.0 -90.0 xyz
   end
   begin
      id 14
      name LeftHand_dum2
      direction 1.000000 0.000000 0.000000
      length 3.937000
      axis 0.0 0.0 -90.0 xyz
   end
   begin
      id 15
      name LeftHandThumb1
      direction 0.000000 0.000000 1.000000
      length 3.937000
      axis 0.0 0.0 -90.0 xyz
      dof rx rz ry
   end
   begin
      id 16
      name RightShoulder
      direction -1.000000 0.000000 0.000000
      length 7.531907
      axis 0.0 0.0 90.0 xyz
      dof rx ry rz
   end
   begin
      id 17
      name RightArm
      direction -1.000000 0.000000 0.000000
      length 10.229199
      axis 0.0 0.0 90.0 xyz
      dof rx ry rz
   end
   begin
      id 18
      name RightForeArm
      direction -1.000000 0.000000 0.000000
      length 8.673495
      axis 0.0 0.0 90.0 xyz
      dof ry rz rx
   end
   begin
      id 19
      name RightHand
      direction 0.000000 0.000000 0.000000
      length 0.000000
      axis 0.0 0.0 90.0 xyz
      dof rx ry rz
   end
   begin
      id 20
      name RightHand_dum1
      direction 0.000000 0.000000 0.000000
      length 0.000000
      axis 0.0 0.0 90.0 xyz
   end
   begin
      id 21
      name RightHand_dum2
      direction -1.000000 0.000000 0.000000
      length 3.937000
      axis 0.0 0.0 90.0 xyz
   end
   begin
      id 22
      name RightHandThumb1
      direction 0.000000 0.000000 1.000000
      length 3.937000
      axis 0.0 0.0 90.0 xyz
      dof rx rz ry
   end
   begin
      id 23
      name LeftUpLeg
      direction 0.000000 -1.000000 0.000000
      length 16.263388
      axis 0.0 0.0 0.0 xyz
      dof rx ry rz
   end
   begin
      id 24
      name LeftLeg
      direction 0.000000 -1.000000 0.000000
      length 14.328163
      axis 0.0 0.0 0.0 xyz
      dof rx ry rz
   end
   begin
      id 25
      name LeftFoot
      direction 0.000000 -0.258819 0.965926
      length 5.031290
      axis 15.0 0.0 0.0 xyz
      dof rx ry rz
   end
   begin
      id 26
      name LeftToeBase
      direction 0.000000 0.000000 1.000000
      length 2.952750
      axis 0.0 0.0 0.0 xyz
      dof rx ry rz
   end
   begin
      id 27
      name RightUpLeg
      direction 0.000000 -1.000000 0.000000
      length 16.263388
      axis 0.0 0.0 0.0 xyz
      dof rx ry rz
   end
   begin
      id 28
      name RightLeg
      direction 0.000000 -1.000000 0.000000
      length 14.328163
      axis 0.0 0.0 0.0 xyz
      dof rx ry rz
   end
   begin
      id 29
      name RightFoot
      direction 0.000000 -0.258819 0.965926
      length 5.031290
      axis 15.0 0.0 0.0 xyz
      dof rx ry rz
   end
   begin
      id 30
      name RightToeBase
      direction 0.000000 0.000000 1.000000
      length 2.952750
      axis 0.0 0.0 0.0 xyz
      dof rx ry rz
   end
:hierarchy
   begin
      root Spine_dum LeftUpLeg_dum RightUpLeg_dum
      Spine_dum Spine
      LeftUpLeg_dum LeftUpLeg
      RightUpLeg_dum RightUpLeg
      Spine Spine_dum1 Spine_dum2 Spine_dum3
      Spine_dum1 Head
      Spine_dum2 LeftShoulder
      Spine_dum3 RightShoulder
      LeftShoulder LeftArm
      LeftArm LeftForeArm
      LeftForeArm LeftHand
      LeftHand LeftHand_dum1 LeftHand_dum2
      LeftHand_dum1 LeftHandThumb1
      RightShoulder RightArm
      RightArm RightForeArm
      RightForeArm RightHand
      RightHand RightHand_dum1 RightHand_dum2
      RightHand_dum1 RightHandThumb1
      LeftUpLeg LeftLeg
      LeftLeg LeftFoot
      LeftFoot LeftToeBase
      RightUpLeg RightLeg
      RightLeg RightFoot
      RightFoot RightToeBase
   end

# File created by Blade
# Date/Time:  Tue Apr 07 21:36:59 2015
# Frame Rate: 120.000 fps
#------------------------------------------------------
:FULLY-SPECIFIED
:DEGREES
156
root 1.358669 33.226090 11.533750 12.630560 -72.457034 -3.688866
Spine 0.485446 -10.026895 5.240174
Head 30.731374 -7.058804 -4.785965
LeftShoulder -17.623136 46.855610 4.969338
LeftArm 53.794292 -3.682592 -86.597499
LeftForeArm -2.409614 -0.000000 16.487299
LeftHand 6.836360 -0.000000 1.297955
LeftHandThumb1 -26.253704 0.000000 33.147579
RightShoulder -4.317781 -9.606217 -17.427492
RightArm 17.150053 -11.868033 80.452000
RightForeArm 2.786861 -0.000000 14.074590
RightHand 5.380909 -0.000000 2.153825
RightHandThumb1 -24.326973 -0.000000 -32.862282
LeftUpLeg -5.767614 -4.468654 8.329072
LeftLeg 22.156212 -0.000000 -0.000000
LeftFoot -4.841973 5.197074 -26.356625
LeftToeBase -29.100725 -0.000000 0.000000
RightUpLeg -19.139402 17.225932 -8.737469
RightLeg 8.858632 -0.000000 -0.000000
RightFoot 5.298789 1.624265 5.683945
RightToeBase -16.633312 -0.000000 0.000000
157
root 1.543396 33.185978 11.632858 13.596918 -73.266502 -4.476575
Spine 0.466059 -9.860858 5.450228
Head 30.572684 -6.869851 -4.778319
LeftShoulder -17.573064 46.800272 5.095553
LeftArm 53.906891 -3.744157 -86.406837
LeftForeArm -2.515669 0.000000 16.866263
LeftHand 6.762435 0.000000 1.488633
LeftHandThumb1 -26.253704 0.000000 33.147579
RightShoulder -4.202990 -9.471011 -17.493337
RightArm 17.208729 -11.441207 80.082871
RightForeArm 2.693178 -0.000000 14.230848
RightHand 5.353207 -0.000000 2.275489
RightHandThumb1 -24.326973 -0.000000 -32.862282
LeftUpLeg -5.744367 -4.159252 8.150834
LeftLeg 21.798965 -0.000000 -0.000000
LeftFoot -5.494634 5.247140 -26.389361
LeftToeBase -29.224095 -0.000000 0.000000
RightUpLeg -19.620328 17.217002 -8.876717
RightLeg 8.540672 -0.000000 -0.000000
RightFoot 5.622478 1.710305 5.793867
RightToeBase -16.486233 -0.000000 0.000000
158
root 1.731013 33.144035 11.733139 14.626978 -74.070136 -5.335362
Spine 0.456981 -9.681604 5.661162
Head 30.407919 -6.651354 -4.793955
LeftShoulder -17.531463 46.815792 5.192737
LeftArm 54.224661 -3.777416 -86.204842
LeftForeArm -2.572518 0.000000 16.967849
LeftHand 6.965091 -0.000000 1.656524
LeftHandThumb1 -26.253704 0.000000 33.147579
RightShoulder -4.084764 -9.280091 -17.589423
RightArm 17.272473 -10.949306 79.802312
RightForeArm 2.517931 -0.000000 14.259033
RightHand 5.330903 -0.000000 2.385814
RightHandThumb1 -24.326973 -0.000000 -32.862282
LeftUpLeg -5.718952 -3.777654 7.940872
LeftLeg 21.469316 -0.000000 -0.000000
LeftFoot -6.159542 5.314312 -26.289508
LeftToeBase -28.652186 -0.000000 0.000000
RightUpLeg -20.104432 17.279992 -9.036020
RightLeg 8.216029 -0.000000 -0.000000
RightFoot 5.964138 1.725158 5.886805
RightToeBase -16.483641 -0.000000 0.000000
159
root 1.923062 33.098455 11.829961 15.841636 -74.903797 -6.353293
Spine 0.437254 -9.455293 5.840880
Head 30.214307 -6.451350 -4.708002
LeftShoulder -17.477231 46.759270 5.348261
LeftArm 54.404917 -3.856699 -86.090783
LeftForeArm -2.310768 -0.000000 17.206520
LeftHand 7.223780 0.000000 1.474120
LeftHandThumb1 -26.253704 0.000000 33.147579
RightShoulder -3.980700 -9.124888 -17.619496
RightArm 17.363248 -10.631723 79.436490
RightForeArm 2.500370 -0.000000 14.425026
RightHand 5.327473 -0.000000 2.222545
RightHandThumb1 -24.326973 -0.000000 -32.862282
LeftUpLeg -5.727610 -3.236190 7.725220
LeftLeg 21.143349 -0.000000 -0.000000
LeftFoot -6.990098 5.372944 -26.209414
LeftToeBase -27.276110 -0.000000 0.000000
RightUpLeg -20.676554 17.386239 -9.194806
RightLeg 7.960205 -0.000000 -0.000000
RightFoot 6.293322 1.753520 5.873064
RightToeBase -16.485439 -0.000000 0.000000
160
root 2.122388 33.050757 11.932466 16.867979 -75.701900 -7.182525
Spine 0.440255 -9.277833 5.958105
Head 30.011780 -6.235832 -4.662855
LeftShoulder -17.984429 47.073030 4.950320
LeftArm 55.331244 -3.768084 -85.678825
LeftForeArm -2.221252 -0.000000 17.134498
LeftHand 7.396088 -0.000000 1.501764
LeftHandThumb1 -26.253704 0.000000 33.147579
RightShoulder -3.897852 -8.927117 -17.663634
RightArm 17.501686 -10.288266 79.116851
RightForeArm 2.432907 -0.000000 14.467961
RightHand 5.432307 -0.000000 2.255060
RightHandThumb1 -24.326973 -0.000000 -32.862282
LeftUpLeg -5.741659 -2.720873 7.425161
LeftLeg 20.759875 -0.000000 -0.000000
LeftFoot -7.823845 5.470318 -26.196028
LeftToeBase -26.261363 -0.000000 0.000000
RightUpLeg -21.320556 17.223238 -9.346262
RightLeg 7.912859 -0.000000 -0.000000
RightFoot 6.539356 1.987744 5.879196
RightToeBase -16.422967 -0.000000 0.000000
161
root 2.325566 33.003984 12.030437 18.206482 -76.475111 -8.285753
Spine 0.400957 -9.084406 6.107218
Head 29.800085 -6.046910 -4.584084
LeftShoulder -18.043671 47.106308 4.961834
LeftArm 55.654710 -3.624082 -85.236624
LeftForeArm -2.773021 -0.000000 17.461969
LeftHand 7.246228 -0.000000 1.991850
LeftHandThumb1 -26.253704 0.000000 33.147579
RightShoulder -3.791422 -8.730222 -17.696772
RightArm 17.627863 -9.715871 78.928621
RightForeArm 2.258900 -0.000000 14.520199
RightHand 5.468158 0.000000 2.107244
RightHandThumb1 -24.326973 -0.000000 -32.862282
LeftUpLeg -5.800414 -2.149156 7.174700
LeftLeg 20.279632 -0.000000 -0.000000
LeftFoot -8.731043 5.648656 -26.211154
LeftToeBase -25.383555 -0.000000 0.000000
RightUpLeg -21.940840 17.235028 -9.504300
RightLeg 7.673720 -0.000000 -0.000000
RightFoot 6.886292 1.941521 5.979923
RightToeBase -16.370461 -0.000000 0.000000
162
root 2.529307 32.956478 12.121847 19.756344 -77.269289 -9.601554
Spine 0.366611 -8.856551 6.214068
Head 29.588708 -5.847481 -4.395585
LeftShoulder -17.940039 47.031421 5.178718
LeftArm 55.763792 -3.601820 -84.984592
LeftForeArm -2.783472 0.000000 17.816791
LeftHand 7.263054 0.000000 2.028286
LeftHandThumb1 -26.253704 0.000000 33.147579
RightShoulder -3.703911 -8.481015 -17.673316
RightArm 17.724403 -9.253161 78.709823
RightForeArm 2.080654 0.000000 14.601887
RightHand 5.394620 0.000000 2.121974
RightHandThumb1 -24.326973 -0.000000 -32.862282
LeftUpLeg -5.836963 -1.488252 6.947946
LeftLeg 19.722632 -0.000000 -0.000000
LeftFoot -9.755106 5.758527 -26.277516
LeftToeBase -24.102428 -0.000000 0.000000
RightUpLeg -22.560735 17.355817 -9.664971
RightLeg 7.372660 -0.000000 -0.000000
RightFoot 7.289320 1.762496 6.209489
RightToeBase -16.238052 -0.000000 0.000000
163
root 2.736194 32.909633 12.217187 21.251764 -78.061455 -10.844020
Spine 0.329760 -8.650822 6.262786
Head 29.381266 -5.669079 -4.243528
LeftShoulder -17.868244 46.897604 5.378878
LeftArm 55.862400 -3.617095 -84.849045
LeftForeArm -2.744123 -0.000000 18.117798
LeftHand 7.128991 0.000000 1.788323
LeftHandThumb1 -26.253704 0.000000 33.147579
RightShoulder -3.642979 -8.270302 -17.594804
RightArm 17.891418 -8.894241 78.436157
RightForeArm 2.040293 -0.000000 14.732094
RightHand 5.476575 -0.000000 1.967406
RightHandThumb1 -24.326973 -0.000000 -32.862282
LeftUpLeg -5.910266 -0.779585 6.656261
LeftLeg 19.166065 -0.000000 -0.000000
LeftFoot -10.719553 5.939753 -26.280975
LeftToeBase -23.011513 -0.000000 0.000000
RightUpLeg -23.185488 17.415180 -9.861540
RightLeg 7.053041 -0.000000 -0.000000
RightFoot 7.709569 1.586236 6.414987
RightToeBase -16.047301 -0.000000 0.000000
164
root 2.949456 32.863783 12.311274 22.683259 -78.839290 -11.991124
Spine 0.271684 -8.417570 6.231735
Head 29.177899 -5.531575 -4.036434
LeftShoulder -17.715964 46.826052 5.620746
LeftArm 56.020315 -3.654300 -84.702008
LeftForeArm -2.852255 -0.000000 18.435161
LeftHand 7.240890 -0.000000 1.727206
LeftHandThumb1 -26.253704 0.000000 33.147579
RightShoulder -3.603671 -8.036961 -17.492222
RightArm 18.021645 -8.483637 78.246620
RightForeArm 1.994639 -0.000000 14.863746
RightHand 5.501506 -0.000000 1.731107
RightHandThumb1 -24.326973 -0.000000 -32.862282
LeftUpLeg -6.047124 -0.061343 6.309456
LeftLeg 18.628073 -0.000000 -0.000000
LeftFoot -11.621341 6.057048 -26.166511
LeftToeBase -21.798646 -0.000000 0.000000
RightUpLeg -23.853474 17.391759 -10.079990
RightLeg 6.751256 -0.000000 -0.000000
RightFoot 8.140639 1.397584 6.582882
RightToeBase -15.751879 -0.000000 0.000000
165
root 3.163257 32.818380 12.407248 24.188182 -79.605828 -13.206658
Spine 0.229422 -8.267118 6.196140
Head 28.904821 -5.296074 -3.857338
LeftShoulder -17.716929 46.725681 5.729879
LeftArm 56.154369 -3.672821 -84.541456
LeftForeArm -2.779321 0.000000 18.776816
LeftHand 7.045530 -0.000000 2.238761
LeftHandThumb1 -26.253704 0.000000 33.147579
RightShoulder -3.563427 -7.810724 -17.414423
RightArm 18.243909 -8.083847 78.099375
RightForeArm 1.965206 0.000000 14.996016
RightHand 5.536829 -0.000000 1.704969
RightHandThumb1 -24.326973 -0.000000 -32.862282
LeftUpLeg -6.197191 0.570735 5.932938
LeftLeg 18.087457 -0.000000 -0.000000
LeftFoot -12.464708 6.223669 -26.019598
LeftToeBase -20.564786 -0.000000 0.000000
RightUpLeg -24.538229 17.249966 -10.253473
RightLeg 6.496003 -0.000000 -0.000000
RightFoot 8.611134 1.248225 6.687485
RightToeBase -15.460810 -0.000000 0.000000
166
root 3.384205 32.775162 12.503444 25.592888 -80.352578 -14.293795
Spine 0.168537 -8.140322 6.082836
Head 28.658393 -5.110224 -3.646970
LeftShoulder -17.697824 46.654959 5.862111
LeftArm 56.343039 -3.729093 -84.459180
LeftForeArm -2.855724 0.000000 19.066941
LeftHand 7.175954 -0.000000 1.678614
LeftHandThumb1 -26.253704 0.000000 33.147579
RightShoulder -3.497724 -7.535619 -17.294331
RightArm 18.398118 -7.697885 77.959105
RightForeArm 1.805400 -0.000000 15.199292
RightHand 5.483839 -0.000000 1.709270
RightHandThumb1 -24.326973 -0.000000 -32.862282
LeftUpLeg -6.370175 0.870073 5.495741
LeftLeg 17.501899 -0.000000 -0.000000
LeftFoot -13.350500 6.667001 -25.901697
LeftToeBase -19.090772 -0.000000 0.000000
RightUpLeg -25.247844 17.030800 -10.450277
RightLeg 6.229258 -0.000000 -0.000000
RightFoot 9.111584 1.108400 7.031888
RightToeBase -15.155529 -0.000000 0.000000
